<svg width="24" height="24" viewBox="0 0 24 24" fill="none" xmlns="http://www.w3.org/2000/svg">
<path opacity="0.35" d="M12 22C17.5228 22 22 17.5228 22 12C22 6.47715 17.5228 2 12 2C6.47715 2 2 6.47715 2 12C2 17.5228 6.47715 22 12 22Z" fill="#D2D6DB"/>
<path d="M17 11H14C13.448 11 13 10.552 13 10V7C13 6.448 12.552 6 12 6C11.448 6 11 6.448 11 7V10C11 10.552 10.552 11 10 11H7C6.448 11 6 11.448 6 12C6 12.552 6.448 13 7 13H10C10.552 13 11 13.448 11 14V17C11 17.552 11.448 18 12 18C12.552 18 13 17.552 13 17V14C13 13.448 13.448 13 14 13H17C17.552 13 18 12.552 18 12C18 11.448 17.552 11 17 11Z" fill="#D2D6DB"/>
</svg>
