<svg width="24" height="24" viewBox="0 0 24 24" fill="none" xmlns="http://www.w3.org/2000/svg">
<path opacity="0.35" d="M18 21H6C4.343 21 3 19.657 3 18V6C3 4.343 4.343 3 6 3H18C19.657 3 21 4.343 21 6V18C21 19.657 19.657 21 18 21Z" fill="#D2D6DB"/>
<path d="M16.5 9H7.5C6.672 9 6 8.329 6 7.5C6 6.671 6.672 6 7.5 6H16.5C17.328 6 18 6.671 18 7.5C18 8.329 17.328 9 16.5 9Z" fill="#D2D6DB"/>
<path d="M10.5 14H7.5C6.672 14 6 13.329 6 12.5C6 11.671 6.672 11 7.5 11H10.5C11.328 11 12 11.671 12 12.5C12 13.329 11.328 14 10.5 14Z" fill="#D2D6DB"/>
<path d="M23.138 23.624C22.311 24.219 21.151 24.044 20.431 23.324L14.599 17.492C14.216 17.108 14 16.588 14 16.045V14.786C14 14.352 14.352 14 14.786 14H16.045C16.587 14 17.108 14.216 17.491 14.599L23.4 20.508C24.279 21.387 24.192 22.865 23.138 23.624Z" fill="#D2D6DB"/>
</svg>
