<svg width="24" height="24" viewBox="0 0 24 24" fill="none" xmlns="http://www.w3.org/2000/svg">
<path d="M21.16 8.01305C20.681 7.93705 20.207 8.21905 20.052 8.68405L18 15.0001H8V21.0001C8 21.3471 8.18 21.6681 8.475 21.8511C8.769 22.0331 9.137 22.0481 9.448 21.8951L10.553 21.3421C10.835 21.2011 11.166 21.2011 11.448 21.3421L12.553 21.8951C12.566 21.9011 12.58 21.8991 12.593 21.9041C12.718 21.9601 12.848 21.9941 12.983 21.9961C13.001 21.9961 13.018 21.9921 13.036 21.9921C13.177 21.9871 13.317 21.9591 13.447 21.8951L14.552 21.3421C14.834 21.2011 15.165 21.2011 15.447 21.3421L16.552 21.8951C16.694 21.9651 16.847 22.0001 17.001 22.0001C17.139 22.0001 17.273 21.9621 17.401 21.9061C17.416 21.8991 17.433 21.9021 17.448 21.8951L18.553 21.3421C18.835 21.2011 19.166 21.2011 19.448 21.3421L20.553 21.8951C20.694 21.9651 20.847 22.0001 21 22.0001C21.183 22.0001 21.365 21.9501 21.525 21.8511C21.82 21.6681 22 21.3471 22 21.0001V9.00005C22 8.51005 21.645 8.09105 21.16 8.01305Z" fill="#D2D6DB"/>
<path opacity="0.35" d="M18 3H6C3.791 3 2 5.686 2 9C2 12.314 3.791 15 6 15H18L20 8L18 3Z" fill="#D2D6DB"/>
<path d="M18 3C15.791 3 14 5.686 14 9C14 12.314 15.791 15 18 15C20.209 15 22 12.314 22 9C22 5.686 20.209 3 18 3ZM18 11C17.448 11 17 10.105 17 9C17 7.895 17.448 7 18 7C18.552 7 19 7.895 19 9C19 10.105 18.552 11 18 11Z" fill="#D2D6DB"/>
</svg>
