<svg width="24" height="24" viewBox="0 0 24 24" fill="none" xmlns="http://www.w3.org/2000/svg">
<path opacity="0.35" d="M21.5 4H2.5C1.67157 4 1 4.67157 1 5.5C1 6.32843 1.67157 7 2.5 7H21.5C22.3284 7 23 6.32843 23 5.5C23 4.67157 22.3284 4 21.5 4Z" fill="#E83C77"/>
<path d="M3 7H6V18.5C6 18.8978 5.84196 19.2794 5.56066 19.5607C5.27936 19.842 4.89782 20 4.5 20C4.10218 20 3.72064 19.842 3.43934 19.5607C3.15804 19.2794 3 18.8978 3 18.5V7Z" fill="#E83C77"/>
<path d="M18 7H21V18.5C21 18.8978 20.842 19.2794 20.5607 19.5607C20.2794 19.842 19.8978 20 19.5 20C19.1022 20 18.7206 19.842 18.4393 19.5607C18.158 19.2794 18 18.8978 18 18.5V7Z" fill="#E83C77"/>
<path d="M19 10H5V13H19V10Z" fill="#E83C77"/>
</svg>
