<svg width="24" height="24" viewBox="0 0 24 24" fill="none" xmlns="http://www.w3.org/2000/svg">
<path opacity="0.35" d="M20 16V19L18.019 20H5.984L4 19V16L5.35 15C5.9 13.82 7.11 13 8.5 13H15.5C16.89 13 18.1 13.82 18.65 15L20 16Z" fill="#D2D6DB"/>
<path d="M8.5 20H3.5C2.12 20 1 18.88 1 17.5C1 16.12 2.12 15 3.5 15H5.35C5.12 15.45 5 15.96 5 16.5C5 18.43 6.57 20 8.5 20Z" fill="#D2D6DB"/>
<path d="M23 17.5C23 18.88 21.88 20 20.5 20H15.5C17.43 20 19 18.43 19 16.5C19 15.96 18.88 15.45 18.65 15H20.5C21.88 15 23 16.12 23 17.5Z" fill="#D2D6DB"/>
<path opacity="0.35" d="M12 11C14.2091 11 16 9.20914 16 7C16 4.79086 14.2091 3 12 3C9.79086 3 8 4.79086 8 7C8 9.20914 9.79086 11 12 11Z" fill="#D2D6DB"/>
<path opacity="0.35" d="M20 12C21.6569 12 23 10.6569 23 9C23 7.34315 21.6569 6 20 6C18.3431 6 17 7.34315 17 9C17 10.6569 18.3431 12 20 12Z" fill="#D2D6DB"/>
<path opacity="0.35" d="M4 12C5.65685 12 7 10.6569 7 9C7 7.34315 5.65685 6 4 6C2.34315 6 1 7.34315 1 9C1 10.6569 2.34315 12 4 12Z" fill="#D2D6DB"/>
</svg>
