<svg width="24" height="24" viewBox="0 0 24 24" fill="none" xmlns="http://www.w3.org/2000/svg">
<path opacity="0.35" d="M19 20H5C3.343 20 2 18.657 2 17V7C2 5.343 3.343 4 5 4H19C20.657 4 22 5.343 22 7V17C22 18.657 20.657 20 19 20Z" fill="#D2D6DB"/>
<path d="M8 12C9.10457 12 10 11.1046 10 10C10 8.89543 9.10457 8 8 8C6.89543 8 6 8.89543 6 10C6 11.1046 6.89543 12 8 12Z" fill="#D2D6DB"/>
<path d="M10.5 16H5.5C4.672 16 4 15.328 4 14.5C4 13.672 4.672 13 5.5 13H10.5C11.328 13 12 13.672 12 14.5C12 15.328 11.328 16 10.5 16Z" fill="#D2D6DB"/>
<path d="M19 9H15C14.448 9 14 8.552 14 8C14 7.448 14.448 7 15 7H19C19.552 7 20 7.448 20 8C20 8.552 19.552 9 19 9Z" fill="#D2D6DB"/>
<path d="M19 13H15C14.448 13 14 12.552 14 12C14 11.448 14.448 11 15 11H19C19.552 11 20 11.448 20 12C20 12.552 19.552 13 19 13Z" fill="#D2D6DB"/>
<path d="M19 17H15C14.448 17 14 16.552 14 16C14 15.448 14.448 15 15 15H19C19.552 15 20 15.448 20 16C20 16.552 19.552 17 19 17Z" fill="#D2D6DB"/>
</svg>
