<svg width="31" height="30" viewBox="0 0 31 30" fill="none" xmlns="http://www.w3.org/2000/svg">
<g clip-path="url(#clip0_3_246)">
<path d="M5.1048 7.76855C5.89226 7.76855 6.64747 8.08721 7.20428 8.65442C7.7611 9.22164 8.07391 9.99095 8.07391 10.7931V19.0879C8.07391 19.4847 7.99708 19.8777 7.84778 20.2442C7.69849 20.6108 7.47966 20.9438 7.20386 21.2241C6.92806 21.5044 6.6007 21.7265 6.24051 21.8777C5.88033 22.029 5.49438 22.1063 5.1048 22.1054V22.1054C4.71554 22.1063 4.32994 22.0289 3.97013 21.8776C3.61033 21.7263 3.28342 21.504 3.00817 21.2236C2.73293 20.9433 2.51475 20.6102 2.36621 20.2437C2.21767 19.8772 2.14168 19.4844 2.14259 19.0879V10.7931C2.14168 10.3963 2.21762 10.0031 2.36608 9.63621C2.51454 9.26929 2.7326 8.9358 3.00775 8.65485C3.28291 8.3739 3.60977 8.15101 3.96961 7.99892C4.32945 7.84684 4.71521 7.76855 5.1048 7.76855V7.76855Z" fill="#E83C77"/>
<path d="M5.10489 0.00711272C5.88877 0.010816 6.6394 0.330144 7.19304 0.895442C7.74669 1.46074 8.05842 2.22613 8.06023 3.02465V3.02465C8.0584 3.8256 7.74478 4.5931 7.18816 5.1588C6.63155 5.7245 5.87738 6.04221 5.09112 6.04221V6.04221C4.30549 6.04221 3.55204 5.72427 2.99651 5.15837C2.44099 4.59247 2.12891 3.82495 2.12891 3.02465V3.02465C2.1289 2.6272 2.20596 2.23367 2.35568 1.86665C2.50541 1.49963 2.72484 1.16634 3.00137 0.885955C3.2779 0.605566 3.60609 0.383589 3.96707 0.232771C4.32806 0.0819536 4.71473 0.0052641 5.10489 0.00711272V0.00711272Z" fill="#E83C77"/>
<path d="M2.96223 23.958H28.0378C28.8252 23.958 29.5805 24.2767 30.1373 24.8439C30.6941 25.4111 31.0069 26.1804 31.0069 26.9826V26.9826C31.0051 27.7835 30.6915 28.551 30.1348 29.1167C29.5782 29.6824 28.8241 30.0001 28.0378 30.0001H2.96223C2.17716 29.9983 1.42476 29.6797 0.869626 29.1142C0.314495 28.5487 0.00181941 27.7823 0 26.9826V26.9826C-2.11633e-06 26.1816 0.311881 25.4134 0.867208 24.8464C1.42254 24.2793 2.17597 23.9599 2.96223 23.958V23.958Z" fill="#E83C77"/>
<path d="M28.8575 12.8212V19.1019C28.8207 19.8779 28.4922 20.6098 27.9401 21.1458C27.3879 21.6818 26.6545 21.9808 25.8918 21.9808C25.1291 21.9808 24.3956 21.6818 23.8435 21.1458C23.2913 20.6098 22.9628 19.8779 22.9261 19.1019V11.572C22.9261 10.7717 22.614 10.0042 22.0585 9.43832C21.503 8.87242 20.7495 8.55449 19.9639 8.55449C19.1783 8.55449 18.4248 8.87242 17.8693 9.43832C17.3138 10.0042 17.0017 10.7717 17.0017 11.572V19.1019C16.965 19.8779 16.6365 20.6098 16.0843 21.1458C15.5322 21.6818 14.7987 21.9808 14.036 21.9808C13.2733 21.9808 12.5399 21.6818 11.9877 21.1458C11.4356 20.6098 11.1071 19.8779 11.0703 19.1019V12.8212V11.7194C11.0457 10.5305 11.2512 9.34836 11.6751 8.24041C12.099 7.13245 12.7331 6.12043 13.5411 5.26217C14.3491 4.40391 15.3151 3.71621 16.3841 3.23837C17.453 2.76054 18.6039 2.50192 19.771 2.47729H20.143C21.3107 2.5001 22.4625 2.75716 23.5326 3.23375C24.6027 3.71033 25.57 4.3971 26.3794 5.2548C27.1887 6.1125 27.8242 7.12429 28.2494 8.23233C28.6746 9.34038 28.8812 10.5229 28.8575 11.7124V11.7124V12.8141V12.8212Z" fill="#E83C77"/>
</g>
<defs>
<clipPath id="clip0_3_246">
<rect width="31" height="30" fill="white"/>
</clipPath>
</defs>
</svg>
